<mxfile host="app.diagrams.net" modified="2022-12-18T14:58:02.589Z" agent="5.0 (X11; Ubuntu)" etag="h-RZrpslIMkUkf9ZEtsY" version="20.7.4" type="github">
  <diagram id="zfaEt4gKCj_0UKEIoMqn" name="Page-1">
    <mxGraphModel dx="2643" dy="2744" grid="1" gridSize="10" guides="1" tooltips="1" connect="1" arrows="1" fold="1" page="1" pageScale="1" pageWidth="850" pageHeight="1100" math="0" shadow="0">
      <root>
        <mxCell id="0" />
        <mxCell id="1" parent="0" />
        <mxCell id="djWxkopLFHNJiZqGL8su-4" value="&lt;div&gt;buildpage_filter&lt;/div&gt;&lt;div&gt;vmode_par&lt;br&gt;&lt;/div&gt;" style="rounded=1;whiteSpace=wrap;html=1;fillColor=#dae8fc;strokeColor=#6c8ebf;" parent="1" vertex="1">
          <mxGeometry x="-340" y="370" width="120" height="60" as="geometry" />
        </mxCell>
        <mxCell id="otv5-7mAPzJiCk5ETvPB-1" value="hyphenate" style="rounded=1;whiteSpace=wrap;html=1;" parent="1" vertex="1">
          <mxGeometry x="10" y="370" width="120" height="60" as="geometry" />
        </mxCell>
        <mxCell id="otv5-7mAPzJiCk5ETvPB-4" value="ligaturing" style="rounded=1;whiteSpace=wrap;html=1;" parent="1" vertex="1">
          <mxGeometry x="210" y="370" width="120" height="60" as="geometry" />
        </mxCell>
        <mxCell id="otv5-7mAPzJiCk5ETvPB-5" value="&lt;div&gt;insert_local_par&lt;/div&gt;&lt;div&gt;new_graf&lt;br&gt;&lt;/div&gt;" style="rounded=1;whiteSpace=wrap;html=1;" parent="1" vertex="1">
          <mxGeometry x="210" y="610" width="120" height="60" as="geometry" />
        </mxCell>
        <mxCell id="otv5-7mAPzJiCk5ETvPB-6" value="kerning" style="rounded=1;whiteSpace=wrap;html=1;" parent="1" vertex="1">
          <mxGeometry x="400" y="370" width="120" height="60" as="geometry" />
        </mxCell>
        <mxCell id="otv5-7mAPzJiCk5ETvPB-7" value="&lt;div&gt;hpack_filter&lt;/div&gt;&lt;div&gt;hbox&lt;br&gt;&lt;/div&gt;" style="rounded=1;whiteSpace=wrap;html=1;" parent="1" vertex="1">
          <mxGeometry x="210" y="470" width="120" height="60" as="geometry" />
        </mxCell>
        <mxCell id="otv5-7mAPzJiCk5ETvPB-18" value="&lt;div&gt;buildpage_filter&lt;/div&gt;&lt;div&gt;hmode_par&lt;br&gt;&lt;/div&gt;" style="rounded=1;whiteSpace=wrap;html=1;fillColor=#dae8fc;strokeColor=#6c8ebf;" parent="1" vertex="1">
          <mxGeometry x="-340" y="760" width="120" height="60" as="geometry" />
        </mxCell>
        <mxCell id="otv5-7mAPzJiCk5ETvPB-19" value="&lt;div&gt;buildpage_filter&lt;/div&gt;&lt;div&gt;new_graf&lt;br&gt;&lt;/div&gt;" style="rounded=1;whiteSpace=wrap;html=1;fillColor=#dae8fc;strokeColor=#6c8ebf;" parent="1" vertex="1">
          <mxGeometry x="-220" y="610" width="120" height="60" as="geometry" />
        </mxCell>
        <mxCell id="otv5-7mAPzJiCk5ETvPB-25" value="" style="endArrow=classic;html=1;rounded=0;sketch=0;strokeColor=default;" parent="1" source="otv5-7mAPzJiCk5ETvPB-1" target="otv5-7mAPzJiCk5ETvPB-4" edge="1">
          <mxGeometry width="50" height="50" relative="1" as="geometry">
            <mxPoint x="180" y="470" as="sourcePoint" />
            <mxPoint x="310" y="410" as="targetPoint" />
          </mxGeometry>
        </mxCell>
        <mxCell id="otv5-7mAPzJiCk5ETvPB-26" value="" style="endArrow=classic;html=1;rounded=0;sketch=0;strokeColor=default;" parent="1" source="djWxkopLFHNJiZqGL8su-4" target="otv5-7mAPzJiCk5ETvPB-1" edge="1">
          <mxGeometry width="50" height="50" relative="1" as="geometry">
            <mxPoint x="430" y="700" as="sourcePoint" />
            <mxPoint x="480" y="650" as="targetPoint" />
          </mxGeometry>
        </mxCell>
        <mxCell id="otv5-7mAPzJiCk5ETvPB-27" value="" style="endArrow=classic;html=1;rounded=0;sketch=0;strokeColor=default;" parent="1" source="otv5-7mAPzJiCk5ETvPB-4" target="otv5-7mAPzJiCk5ETvPB-6" edge="1">
          <mxGeometry width="50" height="50" relative="1" as="geometry">
            <mxPoint x="410" y="270" as="sourcePoint" />
            <mxPoint x="460" y="220" as="targetPoint" />
          </mxGeometry>
        </mxCell>
        <mxCell id="otv5-7mAPzJiCk5ETvPB-28" value="" style="endArrow=classic;html=1;rounded=0;sketch=0;strokeColor=default;" parent="1" source="otv5-7mAPzJiCk5ETvPB-6" target="otv5-7mAPzJiCk5ETvPB-7" edge="1">
          <mxGeometry width="50" height="50" relative="1" as="geometry">
            <mxPoint x="450" y="720" as="sourcePoint" />
            <mxPoint x="500" y="670" as="targetPoint" />
          </mxGeometry>
        </mxCell>
        <mxCell id="otv5-7mAPzJiCk5ETvPB-29" value="" style="endArrow=classic;html=1;rounded=0;sketch=0;strokeColor=default;" parent="1" source="otv5-7mAPzJiCk5ETvPB-7" target="otv5-7mAPzJiCk5ETvPB-1" edge="1">
          <mxGeometry width="50" height="50" relative="1" as="geometry">
            <mxPoint x="460" y="730" as="sourcePoint" />
            <mxPoint x="510" y="680" as="targetPoint" />
          </mxGeometry>
        </mxCell>
        <mxCell id="otv5-7mAPzJiCk5ETvPB-31" value="" style="endArrow=classic;html=1;rounded=0;sketch=0;strokeColor=default;" parent="1" source="otv5-7mAPzJiCk5ETvPB-6" target="otv5-7mAPzJiCk5ETvPB-5" edge="1">
          <mxGeometry width="50" height="50" relative="1" as="geometry">
            <mxPoint x="430" y="700" as="sourcePoint" />
            <mxPoint x="480" y="650" as="targetPoint" />
          </mxGeometry>
        </mxCell>
        <mxCell id="otv5-7mAPzJiCk5ETvPB-34" value="" style="endArrow=classic;html=1;rounded=0;sketch=0;strokeColor=default;" parent="1" edge="1" target="69okxtc1C7XsFGIcPhdR-3" source="otv5-7mAPzJiCk5ETvPB-6">
          <mxGeometry width="50" height="50" relative="1" as="geometry">
            <mxPoint x="450" y="720" as="sourcePoint" />
            <mxPoint x="500" y="670" as="targetPoint" />
          </mxGeometry>
        </mxCell>
        <mxCell id="otv5-7mAPzJiCk5ETvPB-35" value="" style="endArrow=classic;html=1;rounded=0;sketch=0;strokeColor=default;" parent="1" source="otv5-7mAPzJiCk5ETvPB-40" target="otv5-7mAPzJiCk5ETvPB-1" edge="1">
          <mxGeometry width="50" height="50" relative="1" as="geometry">
            <mxPoint x="460" y="730" as="sourcePoint" />
            <mxPoint x="80" y="320" as="targetPoint" />
          </mxGeometry>
        </mxCell>
        <mxCell id="otv5-7mAPzJiCk5ETvPB-36" value="" style="endArrow=classic;html=1;rounded=0;sketch=0;strokeColor=default;" parent="1" source="otv5-7mAPzJiCk5ETvPB-19" target="otv5-7mAPzJiCk5ETvPB-40" edge="1">
          <mxGeometry width="50" height="50" relative="1" as="geometry">
            <mxPoint x="80" y="730" as="sourcePoint" />
            <mxPoint x="130" y="680" as="targetPoint" />
          </mxGeometry>
        </mxCell>
        <mxCell id="otv5-7mAPzJiCk5ETvPB-39" value="linebreak_filter" style="rounded=1;whiteSpace=wrap;html=1;" parent="1" vertex="1">
          <mxGeometry x="550" y="370" width="120" height="60" as="geometry" />
        </mxCell>
        <mxCell id="otv5-7mAPzJiCk5ETvPB-40" value="mlist_to_hlist" style="rounded=1;whiteSpace=wrap;html=1;" parent="1" vertex="1">
          <mxGeometry x="10" y="520" width="120" height="60" as="geometry" />
        </mxCell>
        <mxCell id="69okxtc1C7XsFGIcPhdR-1" value="append_to_vlist_filter" style="rounded=1;whiteSpace=wrap;html=1;" vertex="1" parent="1">
          <mxGeometry x="550" y="580" width="120" height="60" as="geometry" />
        </mxCell>
        <mxCell id="69okxtc1C7XsFGIcPhdR-2" value="&lt;div&gt;buildpage_filter&lt;/div&gt;&lt;div&gt;penalty&lt;br&gt;&lt;/div&gt;" style="rounded=1;whiteSpace=wrap;html=1;fillColor=#dae8fc;strokeColor=#6c8ebf;" vertex="1" parent="1">
          <mxGeometry x="-340" y="240" width="120" height="60" as="geometry" />
        </mxCell>
        <mxCell id="69okxtc1C7XsFGIcPhdR-3" value="pre_linebreak_filter" style="rounded=1;whiteSpace=wrap;html=1;" vertex="1" parent="1">
          <mxGeometry x="400" y="500" width="120" height="60" as="geometry" />
        </mxCell>
        <mxCell id="69okxtc1C7XsFGIcPhdR-4" value="" style="endArrow=classic;html=1;rounded=0;sketch=0;strokeColor=default;" edge="1" parent="1" source="69okxtc1C7XsFGIcPhdR-3" target="otv5-7mAPzJiCk5ETvPB-39">
          <mxGeometry width="50" height="50" relative="1" as="geometry">
            <mxPoint x="460" y="730" as="sourcePoint" />
            <mxPoint x="510" y="680" as="targetPoint" />
          </mxGeometry>
        </mxCell>
        <mxCell id="69okxtc1C7XsFGIcPhdR-5" value="" style="endArrow=classic;html=1;rounded=0;sketch=0;strokeColor=default;" edge="1" parent="1" source="otv5-7mAPzJiCk5ETvPB-39" target="69okxtc1C7XsFGIcPhdR-1">
          <mxGeometry width="50" height="50" relative="1" as="geometry">
            <mxPoint x="470" y="740" as="sourcePoint" />
            <mxPoint x="520" y="690" as="targetPoint" />
          </mxGeometry>
        </mxCell>
        <mxCell id="69okxtc1C7XsFGIcPhdR-9" value="post_linebreak_filter" style="rounded=1;whiteSpace=wrap;html=1;" vertex="1" parent="1">
          <mxGeometry x="500" y="750" width="120" height="60" as="geometry" />
        </mxCell>
        <mxCell id="69okxtc1C7XsFGIcPhdR-10" value="pre_output_filter" style="rounded=1;whiteSpace=wrap;html=1;" vertex="1" parent="1">
          <mxGeometry x="-160" y="190" width="120" height="60" as="geometry" />
        </mxCell>
        <mxCell id="69okxtc1C7XsFGIcPhdR-12" value="" style="endArrow=classic;html=1;rounded=0;sketch=0;strokeColor=default;" edge="1" parent="1" source="69okxtc1C7XsFGIcPhdR-10" target="69okxtc1C7XsFGIcPhdR-18">
          <mxGeometry width="50" height="50" relative="1" as="geometry">
            <mxPoint x="-80" y="940" as="sourcePoint" />
            <mxPoint x="-30" y="890" as="targetPoint" />
          </mxGeometry>
        </mxCell>
        <mxCell id="69okxtc1C7XsFGIcPhdR-13" value="" style="endArrow=classic;html=1;rounded=0;sketch=0;strokeColor=default;" edge="1" parent="1" source="djWxkopLFHNJiZqGL8su-4" target="69okxtc1C7XsFGIcPhdR-2">
          <mxGeometry width="50" height="50" relative="1" as="geometry">
            <mxPoint x="-200" y="920" as="sourcePoint" />
            <mxPoint x="-150" y="870" as="targetPoint" />
          </mxGeometry>
        </mxCell>
        <mxCell id="69okxtc1C7XsFGIcPhdR-14" value="" style="endArrow=classic;html=1;rounded=0;sketch=0;strokeColor=default;" edge="1" parent="1" source="69okxtc1C7XsFGIcPhdR-9" target="otv5-7mAPzJiCk5ETvPB-18">
          <mxGeometry width="50" height="50" relative="1" as="geometry">
            <mxPoint x="360" y="710" as="sourcePoint" />
            <mxPoint x="410" y="660" as="targetPoint" />
          </mxGeometry>
        </mxCell>
        <mxCell id="69okxtc1C7XsFGIcPhdR-15" value="" style="endArrow=classic;html=1;rounded=0;sketch=0;strokeColor=default;" edge="1" parent="1" source="otv5-7mAPzJiCk5ETvPB-18" target="djWxkopLFHNJiZqGL8su-4">
          <mxGeometry width="50" height="50" relative="1" as="geometry">
            <mxPoint x="-190" y="930" as="sourcePoint" />
            <mxPoint x="-140" y="880" as="targetPoint" />
          </mxGeometry>
        </mxCell>
        <mxCell id="69okxtc1C7XsFGIcPhdR-16" value="" style="endArrow=classic;html=1;rounded=0;sketch=0;strokeColor=default;" edge="1" parent="1" source="69okxtc1C7XsFGIcPhdR-2" target="69okxtc1C7XsFGIcPhdR-10">
          <mxGeometry width="50" height="50" relative="1" as="geometry">
            <mxPoint x="360" y="710" as="sourcePoint" />
            <mxPoint x="410" y="660" as="targetPoint" />
          </mxGeometry>
        </mxCell>
        <mxCell id="69okxtc1C7XsFGIcPhdR-17" value="&lt;div&gt;buildpage_filter&lt;/div&gt;&lt;div&gt;end&lt;br&gt;&lt;/div&gt;" style="rounded=1;whiteSpace=wrap;html=1;fillColor=#dae8fc;strokeColor=#6c8ebf;" vertex="1" parent="1">
          <mxGeometry x="-340" y="140" width="120" height="60" as="geometry" />
        </mxCell>
        <mxCell id="69okxtc1C7XsFGIcPhdR-18" value="&lt;div&gt;vpack_filter&lt;/div&gt;&lt;div&gt;vbox&lt;br&gt;&lt;/div&gt;" style="rounded=1;whiteSpace=wrap;html=1;fillColor=#f8cecc;strokeColor=#b85450;" vertex="1" parent="1">
          <mxGeometry x="-160" y="30" width="120" height="60" as="geometry" />
        </mxCell>
        <mxCell id="69okxtc1C7XsFGIcPhdR-19" value="" style="endArrow=classic;html=1;rounded=0;sketch=0;strokeColor=default;" edge="1" parent="1" source="69okxtc1C7XsFGIcPhdR-21" target="otv5-7mAPzJiCk5ETvPB-1">
          <mxGeometry width="50" height="50" relative="1" as="geometry">
            <mxPoint x="-90" y="930" as="sourcePoint" />
            <mxPoint x="-40" y="880" as="targetPoint" />
          </mxGeometry>
        </mxCell>
        <mxCell id="69okxtc1C7XsFGIcPhdR-20" value="" style="endArrow=classic;html=1;sketch=0;strokeColor=default;curved=1;" edge="1" parent="1" source="69okxtc1C7XsFGIcPhdR-18" target="69okxtc1C7XsFGIcPhdR-18">
          <mxGeometry width="50" height="50" relative="1" as="geometry">
            <mxPoint x="350" y="790" as="sourcePoint" />
            <mxPoint x="400" y="740" as="targetPoint" />
            <Array as="points">
              <mxPoint x="-40" y="-30" />
            </Array>
          </mxGeometry>
        </mxCell>
        <mxCell id="69okxtc1C7XsFGIcPhdR-21" value="&lt;div&gt;vpack_filter&lt;/div&gt;&lt;div&gt;split_off&lt;br&gt;&lt;/div&gt;" style="rounded=1;whiteSpace=wrap;html=1;fillColor=#f8cecc;strokeColor=#b85450;" vertex="1" parent="1">
          <mxGeometry x="10" y="30" width="120" height="60" as="geometry" />
        </mxCell>
        <mxCell id="69okxtc1C7XsFGIcPhdR-22" value="&lt;div&gt;buildpage_filter&lt;/div&gt;&lt;div&gt;after_output&lt;br&gt;&lt;/div&gt;" style="rounded=1;whiteSpace=wrap;html=1;fillColor=#dae8fc;strokeColor=#6c8ebf;" vertex="1" parent="1">
          <mxGeometry x="-340" y="30" width="120" height="60" as="geometry" />
        </mxCell>
        <mxCell id="69okxtc1C7XsFGIcPhdR-24" value="" style="endArrow=classic;html=1;rounded=0;sketch=0;strokeColor=default;" edge="1" parent="1" source="69okxtc1C7XsFGIcPhdR-18" target="69okxtc1C7XsFGIcPhdR-22">
          <mxGeometry width="50" height="50" relative="1" as="geometry">
            <mxPoint x="350" y="790" as="sourcePoint" />
            <mxPoint x="10" y="1150" as="targetPoint" />
          </mxGeometry>
        </mxCell>
        <mxCell id="69okxtc1C7XsFGIcPhdR-27" value="" style="ellipse;html=1;shape=startState;fillColor=#000000;strokeColor=#ff0000;" vertex="1" parent="1">
          <mxGeometry x="-455" y="385" width="30" height="30" as="geometry" />
        </mxCell>
        <mxCell id="69okxtc1C7XsFGIcPhdR-28" value="" style="edgeStyle=orthogonalEdgeStyle;html=1;verticalAlign=bottom;endArrow=open;endSize=8;strokeColor=#ff0000;rounded=0;sketch=0;exitX=1;exitY=0.5;exitDx=0;exitDy=0;" edge="1" source="69okxtc1C7XsFGIcPhdR-27" parent="1" target="djWxkopLFHNJiZqGL8su-4">
          <mxGeometry relative="1" as="geometry">
            <mxPoint x="-160" y="660" as="targetPoint" />
          </mxGeometry>
        </mxCell>
        <mxCell id="69okxtc1C7XsFGIcPhdR-30" value="" style="ellipse;html=1;shape=endState;fillColor=#000000;strokeColor=#ff0000;" vertex="1" parent="1">
          <mxGeometry x="-455" y="45" width="30" height="30" as="geometry" />
        </mxCell>
        <mxCell id="69okxtc1C7XsFGIcPhdR-31" value="" style="endArrow=classic;html=1;rounded=0;sketch=0;strokeColor=default;" edge="1" parent="1" source="69okxtc1C7XsFGIcPhdR-22" target="69okxtc1C7XsFGIcPhdR-30">
          <mxGeometry width="50" height="50" relative="1" as="geometry">
            <mxPoint x="350" y="790" as="sourcePoint" />
            <mxPoint x="110" y="1210" as="targetPoint" />
          </mxGeometry>
        </mxCell>
        <mxCell id="69okxtc1C7XsFGIcPhdR-34" value="" style="endArrow=classic;html=1;rounded=0;sketch=0;strokeColor=default;" edge="1" parent="1" source="69okxtc1C7XsFGIcPhdR-17" target="69okxtc1C7XsFGIcPhdR-10">
          <mxGeometry width="50" height="50" relative="1" as="geometry">
            <mxPoint x="350" y="780" as="sourcePoint" />
            <mxPoint x="400" y="730" as="targetPoint" />
          </mxGeometry>
        </mxCell>
        <mxCell id="69okxtc1C7XsFGIcPhdR-36" value="" style="endArrow=classic;html=1;rounded=0;sketch=0;strokeColor=default;" edge="1" parent="1" source="69okxtc1C7XsFGIcPhdR-22" target="69okxtc1C7XsFGIcPhdR-17">
          <mxGeometry width="50" height="50" relative="1" as="geometry">
            <mxPoint x="350" y="780" as="sourcePoint" />
            <mxPoint x="400" y="730" as="targetPoint" />
          </mxGeometry>
        </mxCell>
        <mxCell id="69okxtc1C7XsFGIcPhdR-37" value="*Order of the callbacks in the reference manual*&#xa;&#xa;1.  contribute_filter&#xa;2.  buildpage_filter&#xa;3.  build_page_insert&#xa;4.  pre_linebreak_filter&#xa;5.  linebreak_filter&#xa;6.  append_to_vlist_filter&#xa;7.  post_linebreak_filter&#xa;8.  hpack_filter&#xa;9.  vpack_filter&#xa;10. hpack_quality&#xa;11. vpack_quality&#xa;12. process_rule&#xa;13. pre_output_filter&#xa;14. hyphenate&#xa;15. ligaturing&#xa;16. kerning&#xa;17. insert_local_par&#xa;18. mlist_to_hlist" style="text;whiteSpace=wrap;html=1;" vertex="1" parent="1">
          <mxGeometry x="480" y="20" width="290" height="310" as="geometry" />
        </mxCell>
        <mxCell id="69okxtc1C7XsFGIcPhdR-40" value="buildpage_filter&#xa;&#xa;alignment&#xa;after_output &#xa;new_graf &#xa;vmode_par hmode_par &#xa;insert penalty &#xa;before_display &#xa;after_display &#xa;end" style="align=left;fontColor=default;fontStyle=0;strokeColor=none;fillColor=none;" vertex="1" parent="1">
          <mxGeometry x="-510" y="140" width="140" height="160" as="geometry" />
        </mxCell>
        <mxCell id="69okxtc1C7XsFGIcPhdR-43" value="" style="endArrow=classic;html=1;rounded=0;sketch=0;strokeColor=default;fontColor=default;" edge="1" parent="1" source="69okxtc1C7XsFGIcPhdR-18" target="69okxtc1C7XsFGIcPhdR-21">
          <mxGeometry width="50" height="50" relative="1" as="geometry">
            <mxPoint x="290" y="1070" as="sourcePoint" />
            <mxPoint x="340" y="1020" as="targetPoint" />
          </mxGeometry>
        </mxCell>
        <mxCell id="69okxtc1C7XsFGIcPhdR-45" value="vpack_filter groupcode:&#xa;&#xa;hbox&#xa;adjusted_hbox&#xa;" style="align=left;fontColor=default;fontStyle=0;strokeColor=none;fillColor=none;" vertex="1" parent="1">
          <mxGeometry x="140" y="-30" width="140" height="160" as="geometry" />
        </mxCell>
        <mxCell id="69okxtc1C7XsFGIcPhdR-6" value="" style="endArrow=classic;html=1;rounded=0;sketch=0;strokeColor=default;" edge="1" parent="1" source="69okxtc1C7XsFGIcPhdR-59" target="69okxtc1C7XsFGIcPhdR-9">
          <mxGeometry width="50" height="50" relative="1" as="geometry">
            <mxPoint x="690" y="910" as="sourcePoint" />
            <mxPoint x="530" y="700" as="targetPoint" />
          </mxGeometry>
        </mxCell>
        <mxCell id="69okxtc1C7XsFGIcPhdR-59" value="contribute_filter" style="rounded=1;whiteSpace=wrap;html=1;fontSize=12;fontColor=default;fillColor=none;" vertex="1" parent="1">
          <mxGeometry x="700" y="750" width="120" height="60" as="geometry" />
        </mxCell>
        <mxCell id="69okxtc1C7XsFGIcPhdR-61" value="" style="endArrow=classic;html=1;rounded=0;sketch=0;strokeColor=default;fontSize=12;fontColor=default;" edge="1" parent="1" source="otv5-7mAPzJiCk5ETvPB-7" target="otv5-7mAPzJiCk5ETvPB-5">
          <mxGeometry width="50" height="50" relative="1" as="geometry">
            <mxPoint x="240" y="1020" as="sourcePoint" />
            <mxPoint x="290" y="970" as="targetPoint" />
          </mxGeometry>
        </mxCell>
        <mxCell id="69okxtc1C7XsFGIcPhdR-64" value="" style="endArrow=classic;startArrow=classic;html=1;rounded=0;sketch=0;strokeColor=default;fontSize=12;fontColor=default;" edge="1" parent="1" source="otv5-7mAPzJiCk5ETvPB-19" target="otv5-7mAPzJiCk5ETvPB-5">
          <mxGeometry width="50" height="50" relative="1" as="geometry">
            <mxPoint x="240" y="1020" as="sourcePoint" />
            <mxPoint x="290" y="970" as="targetPoint" />
          </mxGeometry>
        </mxCell>
        <mxCell id="69okxtc1C7XsFGIcPhdR-65" value="" style="endArrow=classic;startArrow=classic;html=1;rounded=0;sketch=0;strokeColor=default;fontSize=12;fontColor=default;" edge="1" parent="1" source="otv5-7mAPzJiCk5ETvPB-19" target="otv5-7mAPzJiCk5ETvPB-18">
          <mxGeometry width="50" height="50" relative="1" as="geometry">
            <mxPoint x="240" y="1020" as="sourcePoint" />
            <mxPoint x="290" y="970" as="targetPoint" />
          </mxGeometry>
        </mxCell>
        <mxCell id="69okxtc1C7XsFGIcPhdR-66" value="" style="endArrow=classic;html=1;rounded=0;sketch=0;strokeColor=default;fontSize=12;fontColor=default;" edge="1" parent="1" source="otv5-7mAPzJiCk5ETvPB-19" target="otv5-7mAPzJiCk5ETvPB-1">
          <mxGeometry width="50" height="50" relative="1" as="geometry">
            <mxPoint x="240" y="1020" as="sourcePoint" />
            <mxPoint x="290" y="970" as="targetPoint" />
          </mxGeometry>
        </mxCell>
        <mxCell id="69okxtc1C7XsFGIcPhdR-68" value="hpack_quality" style="rounded=1;whiteSpace=wrap;html=1;fontSize=12;fontColor=default;fillColor=none;" vertex="1" parent="1">
          <mxGeometry x="700" y="500" width="120" height="60" as="geometry" />
        </mxCell>
        <mxCell id="69okxtc1C7XsFGIcPhdR-69" value="" style="endArrow=classic;html=1;rounded=0;sketch=0;strokeColor=default;fontSize=12;fontColor=default;" edge="1" parent="1" source="otv5-7mAPzJiCk5ETvPB-39" target="69okxtc1C7XsFGIcPhdR-68">
          <mxGeometry width="50" height="50" relative="1" as="geometry">
            <mxPoint x="240" y="460" as="sourcePoint" />
            <mxPoint x="290" y="410" as="targetPoint" />
          </mxGeometry>
        </mxCell>
        <mxCell id="69okxtc1C7XsFGIcPhdR-70" value="" style="endArrow=classic;html=1;rounded=0;sketch=0;strokeColor=default;fontSize=12;fontColor=default;" edge="1" parent="1" source="69okxtc1C7XsFGIcPhdR-68" target="69okxtc1C7XsFGIcPhdR-1">
          <mxGeometry width="50" height="50" relative="1" as="geometry">
            <mxPoint x="680" y="457.6470588235293" as="sourcePoint" />
            <mxPoint x="730" y="472.3529411764707" as="targetPoint" />
          </mxGeometry>
        </mxCell>
        <mxCell id="69okxtc1C7XsFGIcPhdR-72" value="" style="endArrow=classic;startArrow=classic;html=1;sketch=0;strokeColor=default;fontSize=12;fontColor=default;rounded=0;" edge="1" parent="1" source="69okxtc1C7XsFGIcPhdR-59" target="69okxtc1C7XsFGIcPhdR-1">
          <mxGeometry width="50" height="50" relative="1" as="geometry">
            <mxPoint x="240" y="460" as="sourcePoint" />
            <mxPoint x="290" y="410" as="targetPoint" />
          </mxGeometry>
        </mxCell>
        <mxCell id="69okxtc1C7XsFGIcPhdR-74" value="" style="endArrow=classic;html=1;sketch=0;strokeColor=default;fontSize=12;fontColor=default;curved=1;" edge="1" parent="1" source="otv5-7mAPzJiCk5ETvPB-19" target="otv5-7mAPzJiCk5ETvPB-19">
          <mxGeometry width="50" height="50" relative="1" as="geometry">
            <mxPoint x="-500" y="780" as="sourcePoint" />
            <mxPoint x="-550" y="830" as="targetPoint" />
            <Array as="points">
              <mxPoint x="-150" y="710" />
            </Array>
          </mxGeometry>
        </mxCell>
        <mxCell id="69okxtc1C7XsFGIcPhdR-75" value="" style="endArrow=classic;html=1;sketch=0;strokeColor=default;fontSize=12;fontColor=default;curved=1;" edge="1" parent="1" source="otv5-7mAPzJiCk5ETvPB-18" target="otv5-7mAPzJiCk5ETvPB-5">
          <mxGeometry width="50" height="50" relative="1" as="geometry">
            <mxPoint x="100" y="740" as="sourcePoint" />
            <mxPoint x="110" y="510" as="targetPoint" />
          </mxGeometry>
        </mxCell>
        <mxCell id="69okxtc1C7XsFGIcPhdR-79" value="" style="endArrow=classic;startArrow=classic;html=1;rounded=0;sketch=0;strokeColor=default;fontSize=12;fontColor=default;" edge="1" parent="1" source="69okxtc1C7XsFGIcPhdR-59" target="69okxtc1C7XsFGIcPhdR-68">
          <mxGeometry width="50" height="50" relative="1" as="geometry">
            <mxPoint x="60" y="560" as="sourcePoint" />
            <mxPoint x="110" y="510" as="targetPoint" />
          </mxGeometry>
        </mxCell>
        <mxCell id="69okxtc1C7XsFGIcPhdR-80" value="" style="endArrow=classic;html=1;sketch=0;strokeColor=default;fontSize=12;fontColor=default;entryX=0.75;entryY=1;entryDx=0;entryDy=0;curved=1;" edge="1" parent="1" target="djWxkopLFHNJiZqGL8su-4">
          <mxGeometry width="50" height="50" relative="1" as="geometry">
            <mxPoint x="-220" y="420" as="sourcePoint" />
            <mxPoint x="-200" y="480" as="targetPoint" />
            <Array as="points">
              <mxPoint x="-200" y="490" />
            </Array>
          </mxGeometry>
        </mxCell>
      </root>
    </mxGraphModel>
  </diagram>
</mxfile>
